<svg id="Capa_1" enable-background="new 0 0 512 512" height="512" viewBox="0 0 512 512" width="512" xmlns="http://www.w3.org/2000/svg"><g><g><g><path d="m358.146 272.886-128.628-93.51 128.628-93.51v48.51h33.937c16.523 0 29.918-13.395 29.918-29.918v-93.583h90v101.477c0 61.869-50.155 112.024-112.024 112.024h-41.83v48.51z"/></g></g><path d="m229.67 332.336h146.234v51.639h-146.234z"/><path d="m117.251 115.073h51.487v156.235h-51.487z"/><path d="m87.251 285.552v-170.479h-12.251c-41.355 0-75 33.645-75 75v104.779c0 113.739 92.534 206.273 206.272 206.273h94.632c41.355 0 75-33.645 75-75v-12.149h-160.23c-70.926-.001-128.423-57.498-128.423-128.424z"/></g></svg>