<svg height="512pt" viewBox="0 0 512 512" width="512pt" xmlns="http://www.w3.org/2000/svg"><path d="m222.21875 339.851562v-.023437l-11.644531 11.648437.015625.015626-49.261719 49.3125c-6.710937 6.71875-15.632813 10.417968-25.121094 10.417968s-18.410156-3.699218-25.121093-10.417968c-6.714844-6.714844-10.410157-15.648438-10.410157-25.148438 0-9.496094 3.695313-18.425781 10.40625-25.144531l60.894531-60.953125-71.234374-71.304688-.011719-.011718-11.632813 11.636718.015625.015625-49.265625 49.3125c-26.566406 26.589844-39.847656 61.519531-39.847656 96.453125 0 34.929688 13.28125 69.859375 39.847656 96.449219 26.566406 26.59375 61.460938 39.890625 96.355469 39.890625 34.898437 0 69.792969-13.296875 96.359375-39.886719l60.890625-60.953125zm0 0"/><path d="m300.683594 282.546875c-2.8125-2.816406-6.628906-4.398437-10.605469-4.398437-3.980469 0-7.796875 1.582031-10.609375 4.398437l-35.785156 35.894531 71.191406 71.257813 35.828125-35.847657c5.859375-5.863281 5.859375-15.371093 0-21.238281zm0 0"/><path d="m125.09375 199.726562-2.925781-2.921874 71.226562 71.296874 35.832031-35.851562c2.8125-2.8125 4.390626-6.632812 4.390626-10.617188 0-3.984374-1.578126-7.800781-4.390626-10.617187l-50.023437-50.070313c-5.855469-5.863281-15.355469-5.863281-21.214844 0l-35.828125 35.851563.007813.007813zm0 0"/><path d="m205.644531 142.058594c2.050781.957031 4.207031 1.410156 6.332031 1.410156 5.648438 0 11.058594-3.210938 13.605469-8.671875l15.824219-33.96875c3.5-7.515625.25-16.449219-7.257812-19.957031-7.507813-3.503906-16.433594-.253906-19.933594 7.265625l-15.824219 33.964843c-3.5 7.519532-.253906 16.453126 7.253906 19.957032zm0 0"/><path d="m431.015625 277.933594c-3.503906-7.515625-12.429687-10.769532-19.9375-7.261719l-33.933594 15.835937c-7.507812 3.507813-10.757812 12.441407-7.253906 19.957032 2.542969 5.464844 7.953125 8.671875 13.601563 8.671875 2.125 0 4.28125-.453125 6.332031-1.410157l33.933593-15.835937c7.507813-3.507813 10.757813-12.441406 7.257813-19.957031zm0 0"/><path d="m496.199219 133.648438c-6.433594 6.6875-14.128907 12.148437-22.683594 16.023437.027344.855469.039063 1.714844.039063 2.574219v66.171875c0 1.773437-.132813 3.519531-.390626 5.222656h33.617188c2.875 0 5.21875-2.34375 5.21875-5.222656v-45.246094c0-15.304687-6.019531-29.21875-15.800781-39.523437zm0 0"/><path d="m467.058594 119.121094c.734375-.480469 1.457031-.976563 2.160156-1.503906 10.613281-7.902344 17.5-20.550782 17.5-34.78125 0-23.894532-19.417969-43.332032-43.289062-43.332032-.277344 0-.550782.015625-.828126.019532.683594 4.269531 1.050782 8.640624 1.050782 13.101562 0 10.324219-1.910156 20.210938-5.386719 29.324219l3.234375 2.652343c11.433594 9.375 20.128906 21.253907 25.558594 34.519532zm0 0"/><path d="m422.476562 107.800781c-15.125 16.835938-37.042968 27.445313-61.394531 27.445313-23.277343 0-44.324219-9.703125-59.347656-25.261719-11.40625 10.507813-18.570313 25.5625-18.570313 42.261719v66.171875c0 2.878906 2.339844 5.222656 5.21875 5.222656h149.957032c2.875 0 5.21875-2.34375 5.21875-5.222656v-66.171875c-.003906-17.894532-8.222656-33.902344-21.082032-44.445313zm0 0"/><path d="m413.652344 52.625c0 29.0625-23.558594 52.625-52.625 52.625-29.0625 0-52.625-23.5625-52.625-52.625s23.5625-52.625 52.625-52.625c29.066406 0 52.625 23.5625 52.625 52.625zm0 0"/></svg>