<?xml version="1.0" encoding="utf-8"?>
<!-- Generator: Adobe Illustrator 24.1.3, SVG Export Plug-In . SVG Version: 6.00 Build 0)  -->
<svg version="1.1" xmlns="http://www.w3.org/2000/svg" xmlns:xlink="http://www.w3.org/1999/xlink" x="0px" y="0px"
	 viewBox="0 0 3710 3710" style="enable-background:new 0 0 3710 3710;" xml:space="preserve">
<style type="text/css">
	.st0{fill:#FFFFFF;}
	.st1{fill:#FADEDD;}
	.st2{fill:#FFB3B3;}
	.st3{opacity:0.7;fill:url(#SVGID_1_);}
	.st4{opacity:0.7;fill:url(#SVGID_2_);}
	.st5{opacity:0.7;fill:url(#SVGID_3_);}
	.st6{opacity:0.7;fill:url(#SVGID_4_);}
	.st7{opacity:0.64;}
	.st8{fill:url(#SVGID_5_);}
	.st9{fill:url(#SVGID_6_);}
	.st10{fill:url(#SVGID_7_);}
	.st11{fill:url(#SVGID_8_);}
	.st12{fill:url(#SVGID_9_);}
	.st13{fill:url(#SVGID_10_);}
	.st14{fill:#EF8887;}
	.st15{opacity:0.3;}
	.st16{fill:#FFCCCC;}
	.st17{fill:url(#SVGID_11_);}
	.st18{fill:url(#SVGID_12_);}
	.st19{fill:url(#SVGID_13_);}
	.st20{fill:url(#SVGID_14_);}
	.st21{fill:#2F353A;}
	.st22{fill:url(#SVGID_15_);}
	.st23{fill:url(#SVGID_16_);}
	.st24{fill:url(#SVGID_17_);}
	.st25{fill:#45494C;}
	.st26{fill:url(#SVGID_18_);}
	.st27{fill:#66696B;}
	.st28{fill:url(#SVGID_19_);}
	.st29{fill:url(#SVGID_20_);}
	.st30{fill:url(#SVGID_21_);}
	.st31{fill:url(#SVGID_22_);}
	.st32{fill:url(#SVGID_23_);}
	.st33{fill:url(#SVGID_24_);}
	.st34{fill:#BDD0FB;}
	.st35{fill:url(#SVGID_25_);}
	.st36{fill:#EA5456;}
	.st37{opacity:0.7;}
	.st38{fill:#283238;}
	.st39{opacity:0.2;}
	.st40{display:none;opacity:0.3;}
	.st41{display:inline;fill:#FFFFFF;}
	.st42{fill:#747474;}
	.st43{fill:#7F7F7F;}
	.st44{clip-path:url(#SVGID_28_);}
	.st45{opacity:0.7;clip-path:url(#SVGID_29_);}
	.st46{clip-path:url(#SVGID_32_);}
	.st47{opacity:0.7;clip-path:url(#SVGID_33_);}
	.st48{clip-path:url(#SVGID_36_);}
	.st49{opacity:0.5;clip-path:url(#SVGID_37_);}
	.st50{fill:#BFBFBF;}
	.st51{clip-path:url(#SVGID_40_);}
	.st52{clip-path:url(#SVGID_44_);}
	.st53{clip-path:url(#SVGID_48_);}
	.st54{clip-path:url(#SVGID_52_);}
	.st55{opacity:0.9;}
	.st56{fill:#EBEBEB;}
	.st57{fill:#F9EFF0;}
	.st58{fill:#FFF3F4;}
	.st59{fill:#F2E2E3;}
	.st60{fill:#EFE1E2;}
	.st61{fill:#F2E4E5;}
	.st62{fill:#EDD9D9;}
	.st63{opacity:0.6;fill:#FFFFFF;}
	.st64{opacity:0.3;fill:#FFFFFF;}
	.st65{opacity:0.6;}
	.st66{opacity:0.8;fill:#FFFFFF;enable-background:new    ;}
	.st67{opacity:0.3;enable-background:new    ;}
	.st68{opacity:0.4;enable-background:new    ;}
	.st69{opacity:0.2;enable-background:new    ;}
	.st70{fill:#263238;}
	.st71{opacity:0.6;fill:#FFFFFF;enable-background:new    ;}
	.st72{opacity:0.7;fill:#FFFFFF;enable-background:new    ;}
	.st73{opacity:0.1;}
	.st74{opacity:0.5;fill:#FFFFFF;}
	.st75{opacity:0.2;fill:#FFFFFF;}
	.st76{opacity:0.1;enable-background:new    ;}
	
		.st77{fill:none;stroke:#263238;stroke-width:1.2175;stroke-linecap:round;stroke-linejoin:round;stroke-dasharray:9.7209,2.4302,20.2518,8.1007;}
	
		.st78{fill:none;stroke:#263238;stroke-width:1.2175;stroke-linecap:round;stroke-linejoin:round;stroke-dasharray:9.6579,2.4145,20.1207,8.0483;}
	.st79{fill:none;stroke:#263238;stroke-width:1.2175;stroke-linecap:round;stroke-linejoin:round;stroke-miterlimit:10;}
	.st80{opacity:0.5;}
	
		.st81{fill:none;stroke:#FFFFFF;stroke-width:1.2175;stroke-linecap:round;stroke-linejoin:round;stroke-dasharray:9.7209,2.4302,20.2518,8.1007;}
	
		.st82{fill:none;stroke:#FFFFFF;stroke-width:1.2175;stroke-linecap:round;stroke-linejoin:round;stroke-dasharray:9.6579,2.4145,20.1207,8.0483;}
	.st83{fill:none;stroke:#FFFFFF;stroke-width:1.2175;stroke-linecap:round;stroke-linejoin:round;stroke-miterlimit:10;}
	.st84{opacity:0.7;fill:#FFFFFF;}
	.st85{fill:#FFC2BC;}
	.st86{opacity:0.4;fill:#FFFFFF;}
	.st87{fill:#DE5753;}
	.st88{fill:#9F5B53;}
	.st89{opacity:0.1;fill:#FFFFFF;}
</style>
<g id="Background">
	<g>
		<g>
			<rect x="8.47" class="st0" width="3710" height="3710"/>
		</g>
	</g>
</g>
<g id="Illustration">
	<g>
		<path class="st1" d="M3116.72,2335.9c-264.87,623.66-970.42,973.04-1582.28,878.8c-99.56-15.34-372.51-61.02-614.17-276.53
			c-465.21-414.87-564.7-1236.38-189.43-1815.31c273.13-421.36,762.75-660.22,1227.98-648.27
			c100.21,2.57,484.26,18.43,821.78,296.74c49.57,40.88,158.91,138.01,257.46,292.12C3269.45,1425.3,3289.34,1929.45,3116.72,2335.9
			z"/>
		<g>
			<path class="st2" d="M1933.15,756.46l945.44-4.13c9.04-0.08,16.4,7.25,16.35,16.3l-2.02,330.93c-0.05,9.1-7.57,16.38-16.67,16.1
				c-83.37-2.49-937.84-13.45-954.18-12.77c-16.15,0.68-7.37-260.66-4.96-330.79C1917.4,763.42,1924.48,756.53,1933.15,756.46z"/>
			<path class="st0" d="M2876.74,1102.85l-0.11,0c-53.28-1.59-563.88-7.96-809.27-11.03c-71.75-0.9-122.68-1.53-136.26-1.72
				l-1.27-0.02l-0.22-1.25c-5.8-32.72-5.7-142.09,0.29-316.31c0.06-1.82,1.54-3.25,3.36-3.27l945.44-4.13c0.93,0,1.79,0.36,2.43,1
				c0.65,0.65,0.99,1.48,0.99,2.41l-2.02,330.93C2880.1,1101.34,2878.59,1102.85,2876.74,1102.85z M1932.42,1087.06
				c15.27,0.21,65.31,0.83,134.98,1.7c245.39,3.06,756.02,9.44,809.32,11.03l0.09,0.01c0.09,0,0.23-0.15,0.23-0.33l2.02-330.93
				l-0.35-1.86l0.01,1.53l-945.44,4.13c-0.17,0-0.31,0.13-0.32,0.31C1927.06,944.47,1926.88,1053.07,1932.42,1087.06z"/>
			<linearGradient id="SVGID_1_" gradientUnits="userSpaceOnUse" x1="1973.6053" y1="841.9199" x2="2349.093" y2="841.9199">
				<stop  offset="0" style="stop-color:#FFE6E6"/>
				<stop  offset="1" style="stop-color:#FFD9D9"/>
			</linearGradient>
			<path class="st3" d="M1973.61,841.92L1973.61,841.92c0,8.95,2.99,16.2,6.67,16.2h362.15c3.68,0,6.67-7.25,6.67-16.2l0,0
				c0-8.95-2.99-16.2-6.67-16.2h-362.15C1976.59,825.72,1973.61,832.97,1973.61,841.92z"/>
			<linearGradient id="SVGID_2_" gradientUnits="userSpaceOnUse" x1="1973.6053" y1="897.1589" x2="2349.093" y2="897.1589">
				<stop  offset="0" style="stop-color:#FFE6E6"/>
				<stop  offset="1" style="stop-color:#FFD9D9"/>
			</linearGradient>
			<path class="st4" d="M1973.61,897.16L1973.61,897.16c0,8.95,2.99,16.2,6.67,16.2h362.15c3.68,0,6.67-7.25,6.67-16.2l0,0
				c0-8.95-2.99-16.2-6.67-16.2h-362.15C1976.59,880.96,1973.61,888.21,1973.61,897.16z"/>
			<linearGradient id="SVGID_3_" gradientUnits="userSpaceOnUse" x1="1973.6053" y1="952.3981" x2="2349.093" y2="952.3981">
				<stop  offset="0" style="stop-color:#FFE6E6"/>
				<stop  offset="1" style="stop-color:#FFD9D9"/>
			</linearGradient>
			<path class="st5" d="M1973.61,952.4L1973.61,952.4c0,8.95,2.99,16.2,6.67,16.2h362.15c3.68,0,6.67-7.25,6.67-16.2l0,0
				c0-8.95-2.99-16.2-6.67-16.2h-362.15C1976.59,936.19,1973.61,943.45,1973.61,952.4z"/>
			<linearGradient id="SVGID_4_" gradientUnits="userSpaceOnUse" x1="1973.6053" y1="1007.637" x2="2349.093" y2="1007.637">
				<stop  offset="0" style="stop-color:#FFE6E6"/>
				<stop  offset="1" style="stop-color:#FFD9D9"/>
			</linearGradient>
			<path class="st6" d="M1973.61,1007.64L1973.61,1007.64c0,8.95,2.99,16.2,6.67,16.2h362.15c3.68,0,6.67-7.25,6.67-16.2l0,0
				c0-8.95-2.99-16.2-6.67-16.2h-362.15C1976.59,991.43,1973.61,998.69,1973.61,1007.64z"/>
			<g>
				<circle class="st0" cx="2440.85" cy="853.34" r="63"/>
				<circle class="st0" cx="2597.41" cy="853.34" r="63"/>
				<circle class="st0" cx="2753.98" cy="855.4" r="63"/>
				<g>
					<path class="st2" d="M2478.28,840.02c1.95,4.74,3.03,9.93,3.03,15.38c0,22.35-18.12,40.46-40.46,40.46
						c-22.35,0-40.46-18.12-40.46-40.46c0-22.35,18.12-40.46,40.46-40.46c0.68,0,1.36,0.02,2.04,0.05v-10.26
						c-0.68-0.03-1.36-0.04-2.04-0.04c-28.01,0-50.71,22.71-50.71,50.71c0,28.01,22.71,50.71,50.71,50.71
						c28.01,0,50.71-22.71,50.71-50.71c0-6.9-1.38-13.47-3.87-19.46L2478.28,840.02z"/>
					<path class="st2" d="M2618.28,889.63c-6.24,3.94-13.63,6.23-21.56,6.23c-22.35,0-40.46-18.12-40.46-40.46
						c0-22.35,18.12-40.46,40.46-40.46c0.68,0,1.36,0.02,2.04,0.05v-10.26c-0.68-0.03-1.36-0.04-2.04-0.04
						c-28.01,0-50.71,22.71-50.71,50.71c0,28.01,22.71,50.71,50.71,50.71c9.77,0,18.9-2.77,26.65-7.56L2618.28,889.63z"/>
					<path class="st2" d="M2787.74,878.15c-7.28,10.69-19.55,17.71-33.46,17.71c-22.35,0-40.46-18.12-40.46-40.46
						c0-22.35,18.12-40.46,40.46-40.46c0.68,0,1.36,0.02,2.04,0.05v-10.26c-0.68-0.03-1.36-0.04-2.04-0.04
						c-28.01,0-50.71,22.71-50.71,50.71c0,28.01,22.71,50.71,50.71,50.71c17.33,0,32.62-8.69,41.77-21.95L2787.74,878.15z"/>
				</g>
				<g class="st7">
					<linearGradient id="SVGID_5_" gradientUnits="userSpaceOnUse" x1="2377.8503" y1="954.6843" x2="2503.8435" y2="954.6843">
						<stop  offset="0" style="stop-color:#FFE6E6"/>
						<stop  offset="1" style="stop-color:#FFD9D9"/>
					</linearGradient>
					<path class="st8" d="M2492.18,943.02h-102.66c-6.44,0-11.67,5.22-11.67,11.67s5.22,11.67,11.67,11.67h102.66
						c6.44,0,11.67-5.22,11.67-11.67S2498.62,943.02,2492.18,943.02z"/>
					<linearGradient id="SVGID_6_" gradientUnits="userSpaceOnUse" x1="2534.415" y1="954.6843" x2="2660.4077" y2="954.6843">
						<stop  offset="0" style="stop-color:#FFE6E6"/>
						<stop  offset="1" style="stop-color:#FFD9D9"/>
					</linearGradient>
					<path class="st9" d="M2648.74,943.02h-102.66c-6.44,0-11.67,5.22-11.67,11.67s5.22,11.67,11.67,11.67h102.66
						c6.44,0,11.67-5.22,11.67-11.67S2655.18,943.02,2648.74,943.02z"/>
					<linearGradient id="SVGID_7_" gradientUnits="userSpaceOnUse" x1="2690.9795" y1="954.6843" x2="2816.9722" y2="954.6843">
						<stop  offset="0" style="stop-color:#FFE6E6"/>
						<stop  offset="1" style="stop-color:#FFD9D9"/>
					</linearGradient>
					<path class="st10" d="M2702.65,966.35h102.66c6.44,0,11.67-5.22,11.67-11.67s-5.22-11.67-11.67-11.67h-102.66
						c-6.44,0-11.67,5.22-11.67,11.67S2696.2,966.35,2702.65,966.35z"/>
					<linearGradient id="SVGID_8_" gradientUnits="userSpaceOnUse" x1="2377.8503" y1="1025.3354" x2="2503.8435" y2="1025.3354">
						<stop  offset="0" style="stop-color:#FFE6E6"/>
						<stop  offset="1" style="stop-color:#FFD9D9"/>
					</linearGradient>
					<path class="st11" d="M2492.18,979.32h-102.66c-6.44,0-11.67,5.22-11.67,11.67v68.71c0,6.44,5.22,11.67,11.67,11.67h102.66
						c6.44,0,11.67-5.22,11.67-11.67v-68.71C2503.84,984.54,2498.62,979.32,2492.18,979.32z"/>
					<linearGradient id="SVGID_9_" gradientUnits="userSpaceOnUse" x1="2534.415" y1="1025.3354" x2="2660.4077" y2="1025.3354">
						<stop  offset="0" style="stop-color:#FFE6E6"/>
						<stop  offset="1" style="stop-color:#FFD9D9"/>
					</linearGradient>
					<path class="st12" d="M2648.74,979.32h-102.66c-6.44,0-11.67,5.22-11.67,11.67v68.71c0,6.44,5.22,11.67,11.67,11.67h102.66
						c6.44,0,11.67-5.22,11.67-11.67v-68.71C2660.41,984.54,2655.18,979.32,2648.74,979.32z"/>
					<linearGradient id="SVGID_10_" gradientUnits="userSpaceOnUse" x1="2690.9795" y1="1025.3354" x2="2816.9722" y2="1025.3354">
						<stop  offset="0" style="stop-color:#FFE6E6"/>
						<stop  offset="1" style="stop-color:#FFD9D9"/>
					</linearGradient>
					<path class="st13" d="M2805.31,979.32h-102.66c-6.44,0-11.67,5.22-11.67,11.67v68.71c0,6.44,5.22,11.67,11.67,11.67h102.66
						c6.44,0,11.67-5.22,11.67-11.67v-68.71C2816.97,984.54,2811.75,979.32,2805.31,979.32z"/>
				</g>
			</g>
		</g>
	</g>
	<polygon class="st14" points="838.59,2761.41 1685.65,1778.82 1956.71,2021.65 2944.94,1208.47 2786.82,1039.06 3402.35,948.71 
		3295.06,1558.59 3142.59,1389.18 2018.82,2349.18 1703.39,2024.22 	"/>
	<g id="Layer_3">
		<g>
			<g>
				<g class="st15">
					<path class="st16" d="M1826.34,943.59c-5.34-1.11-8.77-6.34-7.66-11.68c2.16-10.37,3.9-21,5.17-31.57
						c0.64-5.35,5.46-9.18,10.8-8.64c0.06,0.01,0.13,0.01,0.19,0.02c5.41,0.65,9.27,5.57,8.62,10.99
						c-1.34,11.13-3.17,22.31-5.45,33.24c-1.04,4.99-5.68,8.32-10.65,7.81C1827.02,943.71,1826.68,943.66,1826.34,943.59z
						 M1826.53,848.43c-0.18-10.65-0.82-21.38-1.89-31.93c-0.55-5.42,3.39-10.27,8.82-10.83c5.45-0.54,10.27,3.4,10.83,8.82
						c1.13,11.09,1.8,22.4,1.99,33.6c0.09,5.45-4.26,9.95-9.71,10.04c-0.4,0.01-0.79-0.01-1.17-0.05
						C1830.48,857.59,1826.61,853.49,1826.53,848.43z M1815.77,765.32c-2.54-10.31-5.55-20.63-8.97-30.69
						c-1.75-5.16,1.01-10.77,6.18-12.53c5.16-1.75,10.77,1.01,12.53,6.18c3.6,10.59,6.77,21.47,9.44,32.32
						c1.3,5.3-1.93,10.64-7.23,11.95c-1.13,0.28-2.26,0.35-3.35,0.24C1820.33,772.39,1816.79,769.49,1815.77,765.32z M1786.7,686.71
						c-4.78-9.49-10.04-18.89-15.61-27.93c-2.86-4.64-1.42-10.73,3.22-13.59c4.65-2.86,10.73-1.41,13.59,3.22
						c5.87,9.52,11.39,19.41,16.43,29.4c2.45,4.87,0.5,10.81-4.37,13.26c-1.74,0.88-3.62,1.19-5.43,1.01
						C1791.29,691.76,1788.27,689.84,1786.7,686.71z M1740.83,616.53c-6.76-8.17-13.96-16.18-21.41-23.78
						c-3.82-3.9-3.75-10.15,0.14-13.97c3.9-3.82,10.15-3.75,13.96,0.15c7.84,8,15.42,16.42,22.52,25.02
						c3.48,4.2,2.88,10.43-1.32,13.9c-2.12,1.75-4.75,2.47-7.28,2.21C1744.96,619.81,1742.56,618.62,1740.83,616.53z
						 M1680.59,558.25c-8.41-6.49-17.2-12.69-26.13-18.45c-4.58-2.95-5.91-9.07-2.96-13.65c2.95-4.59,9.06-5.91,13.65-2.96
						c9.4,6.05,18.65,12.59,27.5,19.42c4.32,3.33,5.12,9.53,1.78,13.85c-2.16,2.81-5.54,4.12-8.82,3.79
						C1683.85,560.07,1682.1,559.42,1680.59,558.25z M1319.58,493.75c-1.75-5.17,1.03-10.77,6.2-12.52
						c10.59-3.57,21.47-6.73,32.35-9.39c5.3-1.29,10.64,1.95,11.93,7.25c1.29,5.3-1.95,10.64-7.25,11.93
						c-10.33,2.52-20.67,5.52-30.72,8.92c-1.38,0.47-2.79,0.61-4.15,0.47C1324.21,500.04,1320.86,497.54,1319.58,493.75z
						 M1608.96,514.8c-9.64-4.45-19.58-8.54-29.57-12.15c-5.13-1.86-7.78-7.52-5.93-12.65c1.86-5.13,7.51-7.76,12.65-5.93
						c10.51,3.8,20.99,8.11,31.13,12.8c4.95,2.29,7.11,8.16,4.82,13.11c-1.81,3.93-5.88,6.1-9.96,5.68
						C1611.05,515.55,1609.99,515.27,1608.96,514.8z M1403.22,473.42c-0.54-5.43,3.42-10.27,8.84-10.81
						c11.12-1.11,22.43-1.76,33.62-1.93c5.46-0.11,9.94,4.27,10.02,9.73c0.08,5.45-4.27,9.94-9.73,10.02
						c-10.64,0.16-21.39,0.77-31.95,1.83c-0.67,0.07-1.34,0.06-1.99,0C1407.46,481.8,1403.69,478.17,1403.22,473.42z
						 M1529.44,488.45c-10.38-2.18-21-3.95-31.55-5.24c-5.42-0.66-9.27-5.59-8.6-11c0.66-5.34,5.46-9.16,10.79-8.62
						c0.07,0.01,0.14,0.01,0.21,0.03c11.11,1.36,22.29,3.21,33.21,5.51c5.34,1.13,8.75,6.36,7.63,11.7
						c-1.05,4.98-5.69,8.3-10.65,7.79C1530.14,488.57,1529.79,488.52,1529.44,488.45z"/>
					<path class="st16" d="M1264.52,528.46c1.93,0.2,3.95-0.17,5.78-1.19c4.45-2.47,9.03-4.89,13.6-7.2
						c4.87-2.45,6.84-8.39,4.38-13.26c-2.45-4.87-8.39-6.84-13.26-4.38c-4.81,2.42-9.63,4.97-14.31,7.57
						c-4.77,2.65-6.49,8.66-3.84,13.43C1258.51,526.36,1261.42,528.14,1264.52,528.46z"/>
				</g>
				<g class="st15">
					<path class="st16" d="M1079.25,765.78c4.74,0.48,9.26-2.54,10.53-7.29c1.31-4.92,2.74-9.9,4.26-14.79
						c1.62-5.21-1.3-10.74-6.5-12.36c-5.23-1.62-10.74,1.3-12.36,6.5c-1.6,5.15-3.11,10.39-4.48,15.57
						c-1.4,5.27,1.74,10.68,7.01,12.08C1078.22,765.64,1078.74,765.73,1079.25,765.78z"/>
					<path class="st16" d="M1392.49,1245.05c-5.39-0.81-9.11-5.85-8.29-11.24c0.82-5.39,5.84-9.09,11.24-8.29
						c10.27,1.55,20.76,2.69,31.31,3.4c5.42,0.35,9.56,5.08,9.19,10.52c-0.37,5.44-5.08,9.56-10.52,9.19
						c-4.57-0.31-9.12-0.69-13.64-1.15C1405.33,1246.83,1398.84,1246.01,1392.49,1245.05z M1468.71,1239.42
						c-0.37-5.44,3.74-10.15,9.18-10.52c10.45-0.72,20.97-1.88,31.29-3.47c5.38-0.84,10.43,2.87,11.26,8.26
						c0.83,5.39-2.87,10.43-8.26,11.26c-10.86,1.67-21.95,2.9-32.94,3.65c-0.57,0.04-1.13,0.03-1.68-0.03
						C1472.86,1248.09,1469.04,1244.29,1468.71,1239.42z M1339.95,1233.39c-10.54-3.11-21.09-6.71-31.36-10.71
						c-5.08-1.98-7.6-7.71-5.62-12.79c1.98-5.08,7.7-7.59,12.79-5.62c9.75,3.8,19.77,7.22,29.77,10.17
						c5.23,1.55,8.22,7.04,6.68,12.27c-1.37,4.63-5.82,7.5-10.46,7.03C1341.16,1233.68,1340.56,1233.57,1339.95,1233.39z
						 M1552.42,1226.5c-1.56-5.23,1.41-10.73,6.64-12.29c10.02-2.99,20.03-6.44,29.75-10.26c5.08-2,10.81,0.5,12.8,5.58
						c1.99,5.08-0.5,10.81-5.58,12.8c-10.24,4.02-20.78,7.66-31.33,10.81c-1.28,0.38-2.57,0.49-3.81,0.37
						C1557.03,1233.12,1553.59,1230.45,1552.42,1226.5z M1259.95,1199.75c-9.59-5.35-19.08-11.18-28.22-17.34
						c-4.52-3.05-5.72-9.18-2.67-13.7c3.05-4.53,9.19-5.72,13.71-2.67c8.68,5.85,17.7,11.39,26.81,16.47
						c4.76,2.66,6.47,8.67,3.81,13.44c-1.98,3.55-5.82,5.4-9.62,5.02C1262.46,1200.83,1261.17,1200.43,1259.95,1199.75z
						 M1189.27,1149.39c-8.21-7.33-16.2-15.1-23.76-23.08c-3.75-3.96-3.58-10.21,0.38-13.96c3.97-3.76,10.22-3.58,13.96,0.38
						c7.18,7.58,14.78,14.96,22.58,21.93c4.07,3.63,4.42,9.88,0.79,13.94c-2.19,2.45-5.33,3.55-8.37,3.24
						C1192.84,1151.64,1190.88,1150.83,1189.27,1149.39z M1131.24,1084.81c-6.42-8.95-12.53-18.27-18.17-27.7
						c-2.8-4.68-1.27-10.74,3.41-13.54c4.69-2.8,10.75-1.27,13.54,3.41c5.35,8.96,11.16,17.82,17.27,26.33
						c3.18,4.43,2.16,10.6-2.27,13.78c-2.04,1.46-4.44,2.04-6.75,1.8C1135.55,1088.61,1132.96,1087.21,1131.24,1084.81z
						 M1088.68,1009.12c-4.31-10.14-8.23-20.58-11.66-31.03c-1.7-5.18,1.12-10.76,6.3-12.46c5.17-1.7,10.76,1.12,12.46,6.31
						c3.26,9.92,6.98,19.83,11.07,29.46c2.13,5.02-0.21,10.82-5.23,12.95c-1.59,0.67-3.25,0.9-4.85,0.74
						C1093.32,1014.73,1090.14,1012.55,1088.68,1009.12z M1063.78,925.87c-1.96-10.81-3.49-21.85-4.53-32.81
						c-0.52-5.43,3.46-10.25,8.89-10.77c5.41-0.51,10.25,3.46,10.77,8.89c0.99,10.41,2.44,20.9,4.31,31.17
						c0.97,5.36-2.59,10.51-7.95,11.48c-0.93,0.17-1.86,0.2-2.76,0.11C1068.23,933.51,1064.58,930.31,1063.78,925.87z
						 M1057.77,839.29c0.32-8.09,0.9-16.27,1.71-24.31c0.29-2.91,0.62-5.81,0.98-8.7c0.67-5.41,5.54-9.37,11.01-8.59
						c5.41,0.66,9.26,5.59,8.59,11.01c-0.34,2.75-0.65,5.51-0.93,8.27c-0.77,7.65-1.32,15.42-1.63,23.11
						c-0.22,5.45-4.81,9.69-10.26,9.47c-0.2-0.01-0.41-0.02-0.61-0.04C1061.48,848.98,1057.56,844.53,1057.77,839.29z"/>
					<path class="st16" d="M1639.06,1200.35c1.95,0.2,3.98-0.18,5.82-1.21c4.66-2.62,9.36-5.38,13.95-8.22
						c4.64-2.86,6.08-8.95,3.22-13.59c-2.87-4.64-8.95-6.09-13.59-3.22c-4.37,2.7-8.83,5.32-13.25,7.81
						c-4.75,2.67-6.45,8.69-3.77,13.44C1633.08,1198.27,1635.97,1200.04,1639.06,1200.35z"/>
				</g>
				<g>
					<path class="st16" d="M1684.98,1037.39c1.39-1.39,1.75-3.52,0.88-5.29l-24.61-50.5c13.83-22.29,24.2-46.95,30.36-73.24
						l53.07-18.31c1.86-0.64,3.11-2.39,3.11-4.36l-0.01-67.38c0-1.97-1.25-3.72-3.11-4.36l-53.08-18.3
						c-6.16-26.29-16.54-50.94-30.37-73.23l24.6-50.5c0.86-1.77,0.51-3.89-0.89-5.28l-47.65-47.64c-1.39-1.39-3.52-1.75-5.29-0.88
						l-50.5,24.61c-22.29-13.83-46.95-24.2-73.24-30.36l-18.31-53.07c-0.64-1.86-2.39-3.11-4.36-3.11l-67.38,0
						c-1.97,0-3.72,1.25-4.36,3.11l-18.3,53.08c-26.29,6.16-50.94,16.54-73.23,30.37l-50.5-24.6c-1.77-0.86-3.89-0.51-5.28,0.89
						l-47.64,47.65c-1.39,1.39-1.75,3.52-0.89,5.28l24.61,50.5c-13.83,22.29-24.2,46.95-30.36,73.24L1159.19,814
						c-1.86,0.64-3.11,2.39-3.11,4.36l0.01,67.38c0,1.97,1.25,3.72,3.11,4.36l53.08,18.3c6.16,26.29,16.54,50.94,30.37,73.23
						l-24.6,50.5c-0.86,1.77-0.51,3.89,0.89,5.29l47.65,47.64c1.39,1.39,3.51,1.75,5.28,0.89l50.5-24.61
						c22.29,13.83,46.95,24.2,73.24,30.36l18.31,53.07c0.64,1.86,2.39,3.11,4.36,3.11l67.38-0.01c1.97,0,3.72-1.25,4.36-3.11
						l18.3-53.07c26.29-6.16,50.94-16.54,73.23-30.37l50.5,24.6c1.77,0.86,3.89,0.51,5.28-0.89L1684.98,1037.39z"/>
					<linearGradient id="SVGID_11_" gradientUnits="userSpaceOnUse" x1="1384.2004" y1="852.021" x2="1519.6791" y2="852.021">
						<stop  offset="0" style="stop-color:#FFE6E6"/>
						<stop  offset="1" style="stop-color:#FFD9D9"/>
					</linearGradient>
					<path class="st17" d="M1435.37,917.7c-36.21-9.14-58.24-46.03-49.1-82.25c4.43-17.54,15.42-32.31,30.95-41.58
						c15.53-9.27,33.75-11.95,51.29-7.51c36.21,9.14,58.24,46.03,49.1,82.25c-8.32,32.95-39.6,54.15-72.45,50.82
						C1441.91,919.1,1438.63,918.53,1435.37,917.7z M1425.32,807.44c-11.91,7.11-20.34,18.43-23.73,31.88
						c-7.01,27.76,9.88,56.05,37.65,63.06c27.77,7.02,56.05-9.88,63.06-37.65c7.01-27.76-9.88-56.05-37.65-63.06
						c-2.52-0.63-5.05-1.08-7.59-1.33C1446.04,799.23,1435,801.66,1425.32,807.44z"/>
					<linearGradient id="SVGID_12_" gradientUnits="userSpaceOnUse" x1="1284.4692" y1="850.9381" x2="1617.5573" y2="850.9381">
						<stop  offset="0" style="stop-color:#FFE6E6"/>
						<stop  offset="1" style="stop-color:#FFD9D9"/>
					</linearGradient>
					<path class="st18" d="M1433.93,1016.62c5.64,0.57,11.35,0.86,17.09,0.86l0,0c1.81,0,3.62-0.03,5.43-0.09
						c8.92-0.29,17.8-1.28,26.51-2.97c0.12-0.02,0.24-0.05,0.36-0.07c0.34-0.07,0.67-0.13,1.01-0.2c0.65-0.13,1.31-0.27,1.96-0.41
						c1.72-0.37,2.93-1.8,3.1-3.46c0.04-0.4,0.02-0.82-0.07-1.24c-0.46-2.13-2.56-3.48-4.69-3.03c-10.97,2.37-22.28,3.57-33.59,3.56
						c-56.22,0.01-105.69-29.37-133.88-73.59c-15.68-24.59-24.78-53.77-24.78-85.04c0-5.48,0.27-10.93,0.82-16.31
						c3.67-36.21,19.55-69.79,45.63-95.87c29.96-29.97,69.8-46.47,112.17-46.48c87.51,0,158.65,71.16,158.66,158.63
						c0,5.39-0.27,10.77-0.81,16.1c-2.34,23.1-9.71,45.43-21.66,65.37c-0.31,0.52-0.49,1.07-0.54,1.63
						c-0.15,1.47,0.54,2.97,1.9,3.79c1.88,1.12,4.3,0.52,5.42-1.36c12.54-20.93,20.29-44.37,22.74-68.63
						c0.57-5.6,0.85-11.23,0.86-16.9c-0.01-91.84-74.75-166.54-166.56-166.53c-44.49,0-86.31,17.33-117.76,48.79
						c-27.38,27.39-44.06,62.63-47.91,100.65c-0.57,5.65-0.86,11.36-0.86,17.12c0,44.49,17.33,86.31,48.79,117.76
						C1360.65,996.1,1395.91,1012.77,1433.93,1016.62z"/>
				</g>
			</g>
			<g>
				<g class="st15">
					<path class="st16" d="M2136.45,1236.61c2.63,0.27,5.22-1.2,6.26-3.77c1.95-4.8,3.79-9.72,5.45-14.63
						c1.08-3.19-0.63-6.65-3.82-7.73c-3.19-1.09-6.65,0.63-7.73,3.82c-1.58,4.68-3.33,9.37-5.19,13.95
						c-1.27,3.12,0.23,6.67,3.35,7.95C2135.32,1236.42,2135.88,1236.55,2136.45,1236.61z"/>
					<path class="st16" d="M2149.45,1191.62c-3.3-0.68-5.42-3.9-4.75-7.2c1.71-8.33,3.01-16.84,3.87-25.3
						c0.18-1.78,0.34-3.58,0.48-5.38c0.27-3.35,3.21-5.86,6.57-5.59c3.16,0.38,5.86,3.21,5.59,6.57c-0.15,1.88-0.32,3.76-0.51,5.62
						c-0.9,8.87-2.26,17.79-4.06,26.52c-0.63,3.09-3.51,5.15-6.58,4.84C2149.86,1191.69,2149.66,1191.65,2149.45,1191.62z
						 M2149.64,1122.77c-0.43-10.3-1.51-20.66-3.2-30.8c-0.55-3.32,1.69-6.46,5.01-7.02c3.31-0.55,6.47,1.69,7.02,5.01
						c1.77,10.63,2.9,21.49,3.35,32.29c0.14,3.37-2.47,6.21-5.84,6.35c-0.29,0.01-0.59,0-0.88-0.03
						C2152.14,1128.28,2149.77,1125.83,2149.64,1122.77z M2139.46,1061.78c-2.94-9.86-6.53-19.65-10.67-29.08
						c-1.35-3.08,0.05-6.68,3.13-8.03c3.09-1.36,6.68,0.04,8.04,3.13c4.35,9.89,8.11,20.16,11.19,30.5c0.96,3.23-0.87,6.63-4.1,7.59
						c-0.79,0.23-1.58,0.3-2.35,0.22C2142.31,1065.87,2140.19,1064.22,2139.46,1061.78z M2114.6,1005.16
						c-5.28-8.86-11.15-17.47-17.46-25.58c-2.07-2.66-1.59-6.49,1.07-8.56c2.65-2.06,6.49-1.59,8.56,1.07
						c6.62,8.51,12.77,17.54,18.31,26.82c1.72,2.89,0.77,6.64-2.12,8.36c-1.17,0.69-2.47,0.95-3.73,0.83
						C2117.38,1007.92,2115.63,1006.89,2114.6,1005.16z M2076.68,956.33c-7.27-7.3-15.05-14.22-23.15-20.57
						c-2.65-2.08-3.11-5.91-1.03-8.56s5.91-3.12,8.56-1.03c8.48,6.65,16.64,13.91,24.26,21.56c2.37,2.39,2.37,6.25-0.02,8.63
						c-1.35,1.34-3.17,1.92-4.92,1.75C2079.03,957.96,2077.72,957.37,2076.68,956.33z M2028.05,918.18
						c-8.82-5.31-18.05-10.12-27.44-14.29c-3.08-1.37-4.47-4.97-3.1-8.05c1.37-3.08,4.96-4.46,8.05-3.1
						c9.85,4.37,19.53,9.42,28.78,14.99c2.88,1.74,3.82,5.49,2.08,8.37c-1.26,2.09-3.57,3.15-5.84,2.92
						C2029.71,918.93,2028.85,918.66,2028.05,918.18z M1971.59,893.09c-9.82-2.98-19.96-5.37-30.14-7.12
						c-3.32-0.58-5.55-3.73-4.97-7.05c0.57-3.32,3.71-5.5,7.05-4.98c10.67,1.84,21.3,4.35,31.6,7.47c3.22,0.98,5.05,4.38,4.07,7.61
						c-0.86,2.84-3.6,4.59-6.45,4.3C1972.37,893.28,1971.98,893.21,1971.59,893.09z M1873.15,877.4c-0.25-3.36,2.26-6.28,5.63-6.54
						c9.3-0.7,18.8-0.9,28.2-0.6c1.43,0.04,2.85,0.1,4.28,0.16c3.35,0.06,5.96,3.02,5.79,6.39c-0.16,3.37-3.02,5.96-6.39,5.79
						c-1.33-0.07-2.67-0.12-4.04-0.16c-9-0.29-18.06-0.1-26.93,0.57c-0.37,0.03-0.73,0.02-1.08-0.01
						C1875.72,882.72,1873.37,880.4,1873.15,877.4z"/>
				</g>
				<g class="st15">
					<path class="st16" d="M1868.45,1395.28c-10.56-1.21-21.14-3.07-31.45-5.54c-3.27-0.79-5.3-4.07-4.51-7.35
						c0.78-3.28,4.09-5.26,7.35-4.51c9.83,2.35,19.92,4.13,29.99,5.28c3.35,0.38,5.75,3.41,5.37,6.75
						c-0.38,3.32-3.36,5.71-6.67,5.38C1868.5,1395.28,1868.47,1395.28,1868.45,1395.28z M1894.22,1390.93
						c-0.02-3.37,2.69-6.12,6.06-6.13c10.13-0.06,20.36-0.74,30.41-2.02c3.32-0.41,6.4,1.94,6.82,5.29
						c0.43,3.34-1.94,6.39-5.28,6.82c-10.53,1.34-21.25,2.05-31.87,2.11c-0.22,0-0.44-0.01-0.66-0.03
						C1896.63,1396.65,1894.23,1394.08,1894.22,1390.93z M1806.44,1380.41c-9.96-3.73-19.78-8.09-29.18-12.98
						c-2.99-1.55-4.15-5.24-2.6-8.23c1.55-2.99,5.22-4.15,8.22-2.6c8.97,4.66,18.33,8.82,27.84,12.38c3.16,1.18,4.75,4.7,3.58,7.85
						c-0.99,2.65-3.63,4.21-6.33,3.93C1807.46,1380.72,1806.94,1380.6,1806.44,1380.41z M1956.21,1384.51
						c-0.83-3.26,1.15-6.58,4.41-7.41c9.82-2.5,19.58-5.62,29.02-9.29c3.14-1.22,6.67,0.34,7.9,3.47c1.22,3.14-0.33,6.68-3.47,7.9
						c-9.89,3.85-20.14,7.13-30.43,9.75c-0.71,0.18-1.43,0.23-2.12,0.16C1959.03,1388.82,1956.86,1387.06,1956.21,1384.51z
						 M1749.88,1351.02c-8.75-6-17.23-12.6-25.2-19.61c-2.53-2.23-2.77-6.08-0.55-8.61c2.23-2.53,6.08-2.78,8.61-0.55
						c7.6,6.7,15.69,12.99,24.04,18.71c2.78,1.9,3.49,5.7,1.58,8.48c-1.3,1.9-3.5,2.84-5.65,2.62
						C1751.73,1351.95,1750.75,1351.61,1749.88,1351.02z M1702.02,1308.9c-7.08-7.94-13.73-16.38-19.78-25.08
						c-1.92-2.76-1.24-6.56,1.52-8.48c2.76-1.92,6.57-1.25,8.49,1.52c5.77,8.3,12.13,16.34,18.88,23.92
						c2.24,2.51,2.02,6.37-0.49,8.61c-1.33,1.18-3.03,1.68-4.68,1.51C1704.49,1310.77,1703.07,1310.09,1702.02,1308.9z
						 M1665.61,1256.54c-4.98-9.41-9.41-19.2-13.2-29.1c-1.2-3.15,0.38-6.67,3.52-7.87c3.15-1.2,6.67,0.38,7.87,3.52
						c3.6,9.45,7.84,18.78,12.58,27.75c1.58,2.98,0.44,6.67-2.54,8.24c-1.1,0.59-2.3,0.8-3.46,0.68
						C1668.44,1259.56,1666.61,1258.41,1665.61,1256.54z"/>
					<path class="st16" d="M2019.83,1366.35c1.17,0.12,2.39-0.1,3.5-0.7c4.6-2.47,9.14-5.1,13.51-7.79c2.86-1.77,3.76-5.53,1.99-8.4
						c-1.77-2.86-5.53-3.75-8.4-1.99c-4.16,2.57-8.5,5.07-12.89,7.44c-2.97,1.6-4.07,5.3-2.48,8.26
						C2016.07,1365.03,2017.88,1366.16,2019.83,1366.35z"/>
				</g>
				<g>
					<path class="st16" d="M2054.6,1255.56c0.93-0.93,1.17-2.35,0.59-3.54l-16.47-33.79c9.25-14.92,16.2-31.42,20.31-49.01
						l35.51-12.25c1.25-0.43,2.08-1.6,2.08-2.92l0-45.09c0-1.32-0.84-2.49-2.08-2.92l-35.52-12.24
						c-4.12-17.59-11.07-34.09-20.32-49.01l16.46-33.79c0.58-1.18,0.34-2.61-0.59-3.54l-31.89-31.88c-0.93-0.93-2.35-1.17-3.54-0.59
						l-33.79,16.47c-14.92-9.25-31.42-16.2-49.01-20.32l-12.25-35.51c-0.43-1.25-1.6-2.08-2.92-2.08l-45.09,0
						c-1.32,0-2.49,0.84-2.92,2.08l-12.24,35.52c-17.59,4.12-34.09,11.07-49.01,20.32l-33.8-16.46c-1.18-0.58-2.6-0.34-3.54,0.59
						l-31.88,31.89c-0.93,0.93-1.17,2.35-0.59,3.54l16.47,33.79c-9.25,14.92-16.2,31.42-20.32,49.01l-35.51,12.25
						c-1.25,0.43-2.08,1.6-2.08,2.92l0,45.09c0,1.32,0.84,2.49,2.08,2.92l35.52,12.24c4.12,17.59,11.07,34.09,20.32,49.01
						l-16.46,33.79c-0.58,1.18-0.34,2.6,0.59,3.54l31.89,31.88c0.93,0.93,2.35,1.17,3.54,0.59l33.79-16.47
						c14.92,9.25,31.42,16.2,49.01,20.32l12.25,35.51c0.43,1.25,1.6,2.08,2.92,2.08l45.09,0c1.32,0,2.49-0.84,2.92-2.08l12.24-35.52
						c17.59-4.12,34.09-11.07,49.01-20.32l33.8,16.46c1.18,0.58,2.6,0.34,3.54-0.59L2054.6,1255.56z"/>
					<linearGradient id="SVGID_13_" gradientUnits="userSpaceOnUse" x1="1852.5021" y1="1131.5382" x2="1944.8004" y2="1131.5382">
						<stop  offset="0" style="stop-color:#FFE6E6"/>
						<stop  offset="1" style="stop-color:#FFD9D9"/>
					</linearGradient>
					<path class="st19" d="M1887.37,1176.26c-11.95-3.01-22.01-10.5-28.33-21.09c-6.32-10.58-8.14-22.99-5.12-34.94
						c6.22-24.66,31.32-39.64,56.03-33.45c24.67,6.23,39.67,31.36,33.44,56.02c-3.01,11.95-10.5,22.01-21.08,28.33
						c-8.6,5.13-18.41,7.3-28.2,6.31C1891.86,1177.22,1889.61,1176.82,1887.37,1176.26z M1865.75,1123.22
						c-2.22,8.79-0.88,17.92,3.77,25.71c4.65,7.78,12.05,13.29,20.84,15.51l0,0c8.79,2.21,17.92,0.88,25.7-3.77
						c7.78-4.64,13.29-12.05,15.51-20.83c4.58-18.14-6.46-36.63-24.6-41.21c-1.64-0.41-3.28-0.7-4.91-0.86
						C1885.6,1096.09,1869.92,1106.72,1865.75,1123.22z"/>
					<linearGradient id="SVGID_14_" gradientUnits="userSpaceOnUse" x1="1783.1383" y1="1130.7961" x2="2012.9407" y2="1130.7961">
						<stop  offset="0" style="stop-color:#FFE6E6"/>
						<stop  offset="1" style="stop-color:#FFD9D9"/>
					</linearGradient>
					<path class="st20" d="M1886.38,1245.11c3.84,0.39,7.73,0.58,11.67,0.59c7.82,0,15.65-0.79,23.29-2.37
						c0.34-0.07,0.69-0.15,1.03-0.22c2.65-0.57,4.52-2.78,4.79-5.34c0.06-0.62,0.03-1.27-0.11-1.91c-0.71-3.29-3.96-5.37-7.25-4.67
						c-7.12,1.54-14.43,2.31-21.74,2.31l0,0c-0.4,0-0.8,0-1.2-0.01c-17.3-0.16-33.9-4.64-48.63-12.83
						c-7.99-4.45-15.44-10-22.13-16.58c-0.05-0.05-0.11-0.11-0.16-0.16c-0.17-0.17-0.33-0.33-0.5-0.49
						c-19.4-19.4-30.08-45.19-30.09-72.62c0-3.55,0.18-7.07,0.53-10.56c2.38-23.44,12.66-45.18,29.54-62.07
						c19.4-19.4,45.19-30.08,72.62-30.08c27.41,0.01,53.22,10.68,72.63,30.07c19.4,19.4,30.08,45.19,30.09,72.62
						c0,3.49-0.18,6.97-0.52,10.42c-1.52,14.96-6.29,29.41-14.02,42.32c-0.48,0.8-0.75,1.65-0.84,2.52
						c-0.23,2.28,0.84,4.59,2.93,5.85c2.89,1.72,6.63,0.8,8.37-2.1c8.65-14.44,13.99-30.61,15.69-47.34
						c0.39-3.86,0.59-7.75,0.59-11.66c0-30.7-11.96-59.55-33.66-81.25c-21.7-21.7-50.54-33.67-81.25-33.64
						c-30.69,0-59.54,11.95-81.24,33.66c-18.89,18.89-30.4,43.21-33.05,69.44c-0.39,3.89-0.6,7.84-0.6,11.81
						C1783.15,1190.22,1828.49,1239.25,1886.38,1245.11z"/>
				</g>
			</g>
		</g>
	</g>
	<g id="Layer_4">
		<g>
			<g>
				<path class="st21" d="M1524.69,3088.97c0,0-5.15,27.63-7.81,55c-1.04,10.7,7.13,20.07,17.86,20.62
					c36.47,1.87,114.48,5.57,142.49,4.58c4.21-0.15,7-4.43,5.48-8.36l0,0c-1.27-3.29-3.77-5.97-6.96-7.48l-128.34-60.47
					L1524.69,3088.97z"/>
				<path class="st0" d="M1520.84,3072.67l3.61,33.14c0,0,22.48,10.73,38.01-0.96l-9-36.98L1520.84,3072.67z"/>
				<path class="st21" d="M1529.73,2450.36c-1.78,8.63-13.22,431.3,30.16,621.18c0.71,3.1-0.89,6.27-3.84,7.44
					c-6.96,2.77-20.58,6.74-36.87,7.13c-5.04,0.12-9.53-3.2-10.91-8.05c-12.5-44.08-72.29-264.89-78.36-475.34
					c-6.78-235.16,0.08-8,0.08-8l6.68-145.26L1529.73,2450.36z"/>
				<path class="st21" d="M1376.27,3102c0,0-7.92,13.9-15.8,50.95c-1.42,6.69,3.2,13.15,10,13.89c12.04,1.3,30.57,3,45.42,3.04
					c6.85,0.02,12.25-5.89,11.49-12.7c-1.52-13.57-6.43-35.85-22.1-53.33L1376.27,3102z"/>
				
					<linearGradient id="SVGID_15_" gradientUnits="userSpaceOnUse" x1="6373.4004" y1="3142.6626" x2="6409.6001" y2="3142.6626" gradientTransform="matrix(1 9.500000e-03 -9.500000e-03 1 -4973.9507 -117.9801)">
					<stop  offset="0" style="stop-color:#FEBBBA"/>
					<stop  offset="1" style="stop-color:#FF928E"/>
				</linearGradient>
				<path class="st22" d="M1369.84,3059.35l8.7,50.15c0,0,9.01,6.84,27.01,2.11l-3.87-53.9L1369.84,3059.35z"/>
				<path class="st21" d="M1350.75,2461.62c-39.09,222.69,2.76,551.34,17.31,615.73c0.89,3.94,4.04,6.99,8.02,7.68
					c6.76,1.19,17.9,2.21,28.92-0.88c3.8-1.06,6.49-4.45,6.68-8.39c2.53-51.92,1.91-370.8,37.55-496.48
					c1.81-6.37,5.76-11.9,11.19-15.69l67.29-46.88l5.86-76.76L1350.75,2461.62z"/>
				<g>
					
						<linearGradient id="SVGID_16_" gradientUnits="userSpaceOnUse" x1="17179.4629" y1="3828.6421" x2="17253.0215" y2="3474.2207" gradientTransform="matrix(-1 0 0 1 19044.4844 0)">
						<stop  offset="0" style="stop-color:#FF928E"/>
						<stop  offset="1" style="stop-color:#EA5456"/>
					</linearGradient>
					<path class="st23" d="M1590.27,2041.25c-110.74-2.89-233.24,26.86-233.24,26.86c-34.85,192.32-9.73,414.77-9.73,414.77
						c85.53,23.3,182.6-12.01,182.6-12.01c15.02-80.38,83.67-306.35,83.67-306.35c54.18-6.2,98.91-21.39,135.81-41.68
						c-27.69-32.73-40.5-74.15-46-98.62C1664.12,2036.02,1624.43,2042.14,1590.27,2041.25z"/>
					<path class="st0" d="M1918.98,1881.23c-10.75-13.25-24.58-7.16-24.58-7.16c-16.96,68.69-102.95,123.7-191.01,150.15
						c5.5,24.47,18.31,65.9,46,98.62C1895.88,2042.31,1918.98,1881.23,1918.98,1881.23z"/>
				</g>
				<g>
					<path class="st0" d="M1916.31,1884.55c1.1,3.63-12.13,9.02-19.75-5.86c-0.2-7.1-4.23-37.53,0.07-43.27
						c22.87-30.56,67.01-68.73,67.01-68.73c7.33,7.37,1.17,14.48,1.17,14.48l-21.45,21.92c4.37,8.07,9.72,14.89,12.16,24.63
						c1.85,7.37,0.6,15.22-3.18,21.87c-3.79,6.68-8.96,15.36-13.83,22.15C1929.29,1884.58,1916.31,1884.55,1916.31,1884.55z"/>
					<path class="st0" d="M1933.93,1817.35l-19.51,16.22l-6.23,16.27l17.07,19.3c0,0,6.11-32.35,10.49-39.32
						C1940.13,1822.86,1937.92,1819.44,1933.93,1817.35z"/>
				</g>
				
					<linearGradient id="SVGID_17_" gradientUnits="userSpaceOnUse" x1="17381.2227" y1="3870.5144" x2="17454.7813" y2="3516.0933" gradientTransform="matrix(-1 0 0 1 19044.4844 0)">
					<stop  offset="0" style="stop-color:#FF928E"/>
					<stop  offset="1" style="stop-color:#EA5456"/>
				</linearGradient>
				<path class="st24" d="M1398.49,2175.76l-41.46-107.65c0,0-104.12,69.3-121.99,158.26c19.53,1.63,55.05,7.05,89.7,24.96
					C1332.81,2209.32,1398.49,2175.76,1398.49,2175.76z"/>
				<path class="st0" d="M1487.94,2277.53c0,0-116.78,64.53-155.43,8.11c-8.03-11.72-9.86-23.3-7.75-34.31
					c-34.65-17.91-70.17-23.34-89.7-24.96c-5.39,26.82-2.95,55.42,12.57,84.45c67.45,126.23,255.42-4.5,255.42-4.5L1487.94,2277.53z
					"/>
				<path class="st0" d="M1478.95,1950.26l-36.21,101.58c-0.6,1.68,0.08,3.56,1.63,4.44c9.56,5.4,44.02,21.08,85.98-4.96
					c4.37-2.71,7.37-7.18,8.08-12.27l12.25-88.1L1478.95,1950.26z"/>
				<g>
					<path class="st0" d="M1556.53,1856.62c0,0,38,73.21,32.76,102.59c-5.24,29.38-53.18,26.81-94.83,2.51l-28.51-78.93
						L1556.53,1856.62z"/>
					<path class="st21" d="M1496.67,1923.11c1.71-0.74,2.36-2.82,1.35-4.38c-3.06-4.77-8.77-14.48-10.55-22.96
						c0,0-6.91-4.52,17.8-10.19c24.72-5.67,61.59-14.48,69.52-35.4c7.73-20.4-11.58-72.06-43.57-31.35
						c-1.22,1.55-3.57,1.56-4.76-0.01c-5.11-6.79-18.6-20.91-37.58-12.61c-17.77,7.77-19.88,20.71-19.7,27.25
						c0.05,1.92-1.68,3.4-3.57,3.02c-8.93-1.79-30.38-3.46-40.61,18.46c-8.42,18.06-3.16,28.38,1.68,33.44
						c1.57,1.64,0.85,4.31-1.33,4.96c-5.9,1.74-13.53,6.66-12.91,20.44c0.87,19.05,22.17,17.58,28.24,16.77
						c0.99-0.13,1.99,0.22,2.66,0.97c5.14,5.8,28.32,30.44,53.64,33.63c2.19,0.28,3.91-1.87,3.21-3.97l-10.66-31.98
						c-0.5-1.49,0.23-3.1,1.67-3.72L1496.67,1923.11z"/>
					<path class="st0" d="M1501.04,1927.68c0,0-27.37-19.17-29.54-3.27c-2.16,15.9,24.59,23.3,37.94,17.49L1501.04,1927.68z"/>
				</g>
				<g>
					<g>
						<path class="st21" d="M1464.07,2379.52l63.61-222.15c0.72-2.52,2.87-4.36,5.48-4.66c11.53-1.34,44.92-5.12,83.48-8.38
							c46.45-3.93,100.38-7.11,132.62-4.4c4.58,0.38,7.35,5.23,5.31,9.35c-18.33,37.08-93.72,187.92-131.48,237.33
							c-1.25,1.64-3.19,2.59-5.25,2.57l-147.59-1.37C1465.97,2387.77,1462.89,2383.65,1464.07,2379.52z"/>
						<path class="st0" d="M1479.44,2325.85c0,0-8.86-36.44-5.29-49.36c3.57-12.93,10.5-29.55,33.58-25.85
							c23.08,3.69,50.32,13.42,50.32,13.42s-1.38,16.84-18.92,11.41l10.88,8.42c0,0-1.56,13.48-16.37,6.28l10.12,11.16
							c0,0-6.36,11.07-17.27,3.97C1515.59,2298.18,1510.36,2330.24,1479.44,2325.85z"/>
					</g>
					<path class="st25" d="M1612.4,2210.64c0,10.31,8.36,18.67,18.67,18.67c10.31,0,18.67-8.36,18.67-18.67
						c0-10.31-8.36-18.67-18.67-18.67C1620.76,2191.97,1612.4,2200.33,1612.4,2210.64z"/>
					<linearGradient id="SVGID_18_" gradientUnits="userSpaceOnUse" x1="1530.1215" y1="2188.074" x2="1711.9749" y2="2188.074">
						<stop  offset="0" style="stop-color:#DAE3FE"/>
						<stop  offset="1" style="stop-color:#E9EFFD"/>
					</linearGradient>
					<path class="st26" d="M1534.88,2222.95l-4.76-1.41l12.95-43.93c2.11-7.16,7.89-12.53,15.07-14.02
						c41.05-8.57,149.17-10.32,153.75-10.39l0.08,4.96c-1.12,0.01-112.23,1.81-152.82,10.28c-5.39,1.12-9.73,5.17-11.32,10.57
						L1534.88,2222.95z"/>
				</g>
			</g>
			<g>
				<path class="st27" d="M782.03,2844.65c-6.78,10.03-33.73,237.22-37.95,321.12c-0.29,5.67,4.25,10.41,9.93,10.41l0,0
					c4.9,0,9.07-3.57,9.82-8.41l49.29-315.89L782.03,2844.65z"/>
				<path class="st27" d="M998.72,2844.65c6.78,10.03,33.73,237.22,37.95,321.12c0.29,5.67-4.25,10.41-9.94,10.41l0,0
					c-4.9,0-9.07-3.57-9.82-8.41l-49.29-315.89L998.72,2844.65z"/>
				<path class="st27" d="M741.27,2826.92l-0.02,2.48c-0.16,17.82,15.19,32.44,34.42,32.77l227.85,3.88
					c18.95,0.32,34.74-13.37,35.66-30.92l0.12-2.27c0.96-18.3-14.58-33.72-34.34-34.07L777,2794.7
					C757.49,2794.35,741.43,2808.83,741.27,2826.92z"/>
			</g>
			<g>
				<g>
					<path class="st27" d="M1221.24,3157.52c-40.5,0-58.42-3.47-66.44-6.64c1.56,6.65,7.48,11.9,14.97,11.9h143.29
						c4.82,0,7.87-4.62,6.72-8.8C1303.44,3155.29,1268.75,3157.52,1221.24,3157.52z"/>
					<path class="st21" d="M1319.78,3153.98c-0.23-0.84-0.57-1.67-1.17-2.44c-10.92-13.94-32.84-35.82-62.67-35.4
						c-43.69,0.61-58.93,5.35-92.88,0.27l-8.01,26.55c-0.82,2.71-0.83,5.41-0.24,7.92c8.01,3.17,25.93,6.64,66.44,6.64
						C1268.75,3157.52,1303.44,3155.29,1319.78,3153.98z"/>
				</g>
				<path class="st0" d="M1172.89,3087.8l-9.83,33.44c0,0,21.78,9.92,40.94,1.96l3.76-28.97L1172.89,3087.8z"/>
				<g>
					<path class="st27" d="M1469.87,3136.46c-31.57,25.37-47.71,33.9-55.93,36.46c5.36,4.19,13.25,4.55,19.09-0.14l111.7-89.75
						c3.76-3.02,3.26-8.51-0.25-11.04C1532.56,3083.25,1506.91,3106.7,1469.87,3136.46z"/>
					<path class="st21" d="M1544.48,3072c-0.71-0.51-1.49-0.94-2.44-1.16c-17.2-3.97-47.93-7.22-70.92,11.79
						c-33.68,27.84-42.6,41.06-72.24,58.38l10.31,25.62c1.05,2.61,2.72,4.72,4.75,6.3c8.22-2.56,24.36-11.09,55.93-36.46
						C1506.91,3106.7,1532.56,3083.25,1544.48,3072z"/>
				</g>
				<path class="st21" d="M962.55,2706.8c0,0,242.49,19.8,292.24,43.22c49.75,23.42-40.6,351.63-40.6,351.63s-13.54,6.52-43.68-2.85
					c0,0,30.9-242.21,7.91-294.73l-262.56-42.95L962.55,2706.8z"/>
				<path class="st0" d="M1374.79,3094.9c2.25,2.05,24.09,46.1,24.09,46.1s24.32-5.26,29.27-20.65l-21.88-39.76L1374.79,3094.9z"/>
				<path class="st21" d="M816.5,2704.77c0,0-7.9,19.01-7.58,44.28c0.45,34.95,28.54,63.3,63.45,65.04l286.67,13.07
					c6.05,0.28,11.18,4.47,12.69,10.33c6.74,26.06,39.66,106.07,200.62,265.74c4.28,4.25,10.95,4.97,16.05,1.75l22.91-14.47
					c2.41-1.52,3.17-4.67,1.74-7.13l-166.91-285.03c-8.77-14.47-22.86-24.92-39.25-29.11l-244.33-62.46L816.5,2704.77z"/>
				<path class="st0" d="M1099.01,2259.53c0,0-30.71,54.3-62.02,80.6l64.72,36.11c0,0,14.58-57.48,47.9-74.31L1099.01,2259.53z"/>
				<linearGradient id="SVGID_19_" gradientUnits="userSpaceOnUse" x1="1255.5237" y1="2160.6111" x2="1171.9336" y2="2374.6013">
					<stop  offset="0" style="stop-color:#FF928E"/>
					<stop  offset="1" style="stop-color:#EA5456"/>
				</linearGradient>
				<path class="st28" d="M811.29,2706.8c0,0,77.39,18.86,151.26,0c0,0,103.36-138.95,143.35-176.77c0,0,63.79,100.65,205.76,114.92
					l7.92-17.69c0,0-113.03-52.1-147.82-132.16c-34.8-80.06-48.77-114.2-80.43-135.09c-19.72-13.01-31.52-21.9-37.62-26.75
					c-3.34-2.66-7.95-2.96-11.59-0.74C1008.52,2352.99,850.44,2461.26,811.29,2706.8z"/>
				<linearGradient id="SVGID_20_" gradientUnits="userSpaceOnUse" x1="1101.6771" y1="1866.7546" x2="1076.6013" y2="2684.2219">
					<stop  offset="0" style="stop-color:#E1473D"/>
					<stop  offset="1" style="stop-color:#E9605A"/>
				</linearGradient>
				<path class="st29" d="M1101.71,2528.07c-1.49,0-2.96-0.67-3.94-1.94c-24.65-32.13-38.37-67.56-38.94-69.04
					c-0.98-2.56,0.3-5.43,2.86-6.41c2.56-0.98,5.43,0.3,6.41,2.86c0.14,0.35,13.81,35.61,37.55,66.56c1.67,2.18,1.26,5.29-0.92,6.96
					C1103.83,2527.74,1102.76,2528.07,1101.71,2528.07z"/>
				<path class="st0" d="M1303.13,2618.02l15.98-4.26l48.52-11.24c5.84-1.35,11.98-0.32,17.05,2.88l41.72,26.25l-115.21-0.19
					L1303.13,2618.02z"/>
				<g>
					<path class="st0" d="M1147.77,2178.12c0,0,29.84,49.61,35.02,77.03c5.18,27.42,13.49,44.56-17.72,54.33
						c-31.21,9.77-60.21-2.59-78.41-28.19c0,0-28.43-39.39-25.59-57.43C1063.91,2205.82,1147.77,2178.12,1147.77,2178.12z"/>
					<path class="st21" d="M1094.97,2260.07l4.04-0.53c0,0-21.13-31.93-7.3-39.85c13.83-7.92,70.18-27.36,79.96-49.55
						c9.43-21.39-4.68-45.56-21.69-50.61c-1.08-0.32-2.21,0.32-2.6,1.37l-1,2.69c-0.68,1.85-3.27,1.92-4.06,0.12l0,0
						c-0.75-1.71-3.2-1.78-3.97-0.08c-3.02,6.65-12.05,18-39.15,26.79c-38.45,12.47-62.4,31.85-59.46,59.17
						c0.19,1.73-1.53,2.92-3.12,2.22c-3.14-1.39-7.91-1.61-13.44,4.44c-9.62,10.52-2.08,33.54,24.2,49.83
						c1.25,0.77,1.47,2.54,0.35,3.49c-3.93,3.37-9.46,10.87,8.32,17.56c18.19,6.84,28.11,4.53,31.78,3.06
						c0.99-0.4,1.55-1.42,1.35-2.46l-4.67-23.94c-0.24-1.24,0.61-2.42,1.86-2.59L1094.97,2260.07z"/>
					<path class="st0" d="M1096.63,2264.99c0,0-13.17-32.47-27-21.06c-13.83,11.41,12.78,36.64,25.07,36.3L1096.63,2264.99z"/>
				</g>
			</g>
			<g>
				<g>
					<path class="st21" d="M1258.62,2654.24c0.19,0.01,0.38,0.01,0.57,0.01l246.13-0.25c6.08-0.01,11.01-4.93,11-11.01
						c-0.01-6.08-4.96-11.09-11.03-10.99l-246.13,0.25c-6.08,0-11.01,4.93-11,11.01C1248.16,2649.16,1252.8,2653.96,1258.62,2654.24
						z"/>
				</g>
				<g>
					<path class="st21" d="M1600.64,2413.2c-0.09,0.17-0.17,0.34-0.25,0.51L1496.83,2637c-2.56,5.52-0.17,12.06,5.34,14.62
						c5.51,2.56,12.15,0.18,14.61-5.37l103.56-223.28c2.56-5.52,0.17-12.06-5.34-14.62
						C1609.66,2405.87,1603.35,2408.05,1600.64,2413.2z"/>
				</g>
			</g>
			<g>
				<g>
					<rect x="2219.18" y="2878.64" class="st27" width="25.98" height="280.94"/>
					<path class="st27" d="M2345.94,3164.99h-227.53l0,0c0-9.34,7.57-16.91,16.91-16.91h193.71
						C2338.36,3148.08,2345.94,3155.65,2345.94,3164.99L2345.94,3164.99z"/>
					<path class="st27" d="M2379.7,2868.89c0,15.37-12.57,27.94-27.94,27.94h-230.2c-15.37,0-27.94-12.57-27.94-27.94v-25.26
						c0-15.37,12.57-27.94,27.94-27.94h230.2c15.37,0,27.94,12.57,27.94,27.94V2868.89z"/>
				</g>
				<g>
					<path class="st0" d="M2040.39,2691.32c0,0-38.6,5.98-82,35c-6.83,4.57-10.58,12.53-9.55,20.68
						c5.2,41.17,26.56,174.41,97.03,304.54c3.72,6.86,4.78,14.85,3.14,22.48l-12.24,56.97l-22.7,21.29h58.47l38.93-105.36
						l-16.65-5.26c-12.91-4.08-21.76-15.95-22-29.49l-1.95-113.02c1.67-50.35-30.88-85.1-30.88-85.1l93.38-4.54L2040.39,2691.32z"/>
					<path class="st21" d="M1991.23,3162.55c-5.33,6.97,57.32,16.17,88.96,0.92c0,0,43.87-76.33,43.87-115.63
						c0,0-3.48-8.01-29.24-6.2c0,0-14.73,90.38-30.28,100.5c-15.55,10.12-43.52,1.02-43.52,1.02S1999.09,3152.27,1991.23,3162.55z"
						/>
					<path class="st0" d="M2121.57,2815.7c-0.5-0.86-100.54-12.03-100.54-12.03s3.27,30.42-6.96,72.29
						c-10.23,41.88-157.12,223.3-157.12,223.3l15.4,48.82c-47.62,16.59-94.46,19.24-140.56,8.46l95.45-57.28
						c0,0,89.33-304.42,144.05-358.73l100.28-34.7L2121.57,2815.7z"/>
					<path class="st21" d="M2345.94,2638.56c0,0,57.64,85.73,62.37,124.84c4.73,39.11-15.79,55-76.27,57.62
						c-60.48,2.62-221.94,2.58-221.94,2.58l-137.8-117.77c0,0,100.42-35.83,126.53-45.97
						C2124.94,2649.73,2345.94,2638.56,2345.94,2638.56z"/>
					<path class="st21" d="M1866.52,3131.64c0,0,16.58,16.06,5.38,33.93c0,0-131.36,23.28-167.02,12.72c0,0,7.41-16.9,47.56-36.14
						l-2.96,2.27c-3.75,2.88-1.55,8.88,3.17,8.61C1779.12,3151.52,1833.88,3146.67,1866.52,3131.64z"/>
				</g>
				<g>
					<path class="st21" d="M2096.25,2094.85c117.83-20.03,173.3,76.07,169.25,96.26c-0.54,2.68,1.99,4.94,4.63,4.23
						c13.53-3.64,43.41-8.23,61.94,14.98c16.36,20.49,4.13,39.83-5.83,50.45c-2.41,2.56-0.38,6.73,3.1,6.29
						c24.87-3.14,78.91-3.89,87.75,46.73c8.25,47.21-24.61,60.52-44.1,64.28c-3.3,0.63-4.07,4.97-1.23,6.77
						c9.72,6.17,20.99,18.91,16.43,44.06c-7.13,39.42-84.42,36.2-93.46,35.68c-0.57-0.03-1.11-0.2-1.61-0.48l-123.8-70.61
						c-0.97-0.55-1.63-1.5-1.82-2.6l-24.99-144.34c-0.2-1.17,0.16-2.36,0.98-3.22l-80.71-113.89
						C2033.48,2125.14,2094.86,2095.09,2096.25,2094.85z"/>
					<linearGradient id="SVGID_21_" gradientUnits="userSpaceOnUse" x1="2709.4595" y1="1361.1907" x2="2462.0337" y2="1963.0377">
						<stop  offset="0" style="stop-color:#FF928E"/>
						<stop  offset="1" style="stop-color:#EA5456"/>
					</linearGradient>
					<path class="st30" d="M2190.05,2627.21c0,0-67.12-63.92-100.16-106.25c-17.86-22.88-23.47-53.01-15.21-80.84
						c15.08-50.82,41.89-103.46,44.34-111.65c3.75-12.56,79.01-12.03,79.01-12.03s148.1,96.12,206.29,258.94l-65.35,20.35
						c0,0-38.67-64.88-76.88-106.12c0,0,66.11,87.34,68.44,123.09L2190.05,2627.21z"/>
					<path class="st0" d="M2109.91,2258.29c0.79,2.61,20.43,67.73,21.97,69.08c1.54,1.35,43.08,3.59,62.63-9.78l-48.51-94.88
						L2109.91,2258.29z"/>
					<g>
						<path class="st0" d="M2031.16,2174.62c0,0-9.49,37.31,16.77,87.48c26.27,50.18,56,50.12,72.25,34.06
							c16.25-16.06,36.3-43.31,31.54-91.82C2146.96,2155.82,2044.87,2127.16,2031.16,2174.62z"/>
						<path class="st21" d="M2115.39,2206.97c0,0-43.58-66.62-84.44-14.19l-0.74,19.07c0,0-47.86-5.68-39.48-49.57
							c8.37-43.89,49.74-71.32,103.01-52.31c53.27,19.01,83.79,38.5,87.23,76.68c3.44,38.17-26.93,29.8-26.93,29.8
							s-9.91-26.88-23.99-29.67c-14.08-2.79-10.42,18.17-10.42,18.17L2115.39,2206.97z"/>
						<path class="st0" d="M2126.55,2206.08c0,0-22.6-34.11,0.56-39.2c23.16-5.09,19.57,33.24,17.07,47.42L2126.55,2206.08z"/>
					</g>
					<path class="st0" d="M2053.3,2631.96l49.32-47.53l68.22,28.82c0,0,67.91,10.52,106.78,0c38.87-10.52,38.87-10.52,38.87-10.52
						l87.83-27.34l13.79,38.99c3.5,9.9-0.02,20.89-8.58,26.97c-7.6,5.4-16.51,11.33-22.18,13.82c-11.57,5.06-285.13-3.5-285.13-3.5
						L2053.3,2631.96z"/>
				</g>
				<g>
					<path class="st21" d="M2239.94,2654.37c-0.22,0.01-0.44,0.02-0.66,0.01l-286.08-0.31c-7.07-0.01-12.8-5.74-12.79-12.82
						c0.01-7.07,5.77-12.92,12.82-12.79l286.08,0.31c7.07,0.01,12.8,5.75,12.79,12.82
						C2252.09,2648.44,2246.7,2654.03,2239.94,2654.37z"/>
					<path class="st21" d="M1696.03,2394.63h238.25c17.58,0,33.57,10.14,41.07,26.04l110.14,233.55h-296.08
						c-11.33,0-21.5-6.92-25.67-17.45l-85.41-216.11C1673.4,2408.16,1682.6,2394.63,1696.03,2394.63z"/>
					<path class="st25" d="M1863.88,2514.37c5.16,16.04,1.35,31.62-8.52,34.79c-9.87,3.18-22.05-7.25-27.22-23.29
						c-5.16-16.04-1.35-31.62,8.52-34.79C1846.53,2487.91,1858.71,2498.33,1863.88,2514.37z"/>
				</g>
			</g>
			<g>
				<g>
					<path class="st21" d="M2566.09,3129.58c0,0,3,16.67,4.19,36.46c0.51,8.43-5.74,15.76-14.15,16.58
						c-29.28,2.84-95.93,8.08-138.49,1.94c-5.96-0.86-8.33-8.18-3.92-12.29c17.55-16.35,59.93-48.15,129.68-55.1L2566.09,3129.58z"
						/>
					<path class="st0" d="M2580.64,3092l-14.8,36.29c-2.03,4.97-7.07,8.06-12.42,7.51c-3.63-0.38-7.92-1.07-12.09-2.34
						c-8.35-2.54-13.07-11.39-10.57-19.76l11.17-37.38L2580.64,3092z"/>
					<path class="st21" d="M2833.75,3158.49c0,0-29.65,24.8-41.2,56.62c-3.18,8.75,3.54,17.97,12.85,17.97h61.01
						c8.93,0,15.77-8.03,14.22-16.83C2876.75,3194.28,2865.54,3158.58,2833.75,3158.49z"/>
					<path class="st0" d="M2870.48,3126.2c0,0-5.99,26.51-10.59,44.02c-0.84,3.18-4.23,4.92-7.32,3.82
						c-9.23-3.3-16.74-4.76-22.21-4.03c-2.52,0.34-4.73-1.76-4.76-4.31l-0.57-44.02L2870.48,3126.2z"/>
					<path class="st21" d="M2712.81,2529.79l-180.32,550.12c0,0,34.59,22.65,51.06,21.71l214.18-442.11
						c0,0,37.48,272.41,19.32,467.98l61.35,4.68c0,0,99.75-499.78,24.2-670.96L2712.81,2529.79z"/>
					<path class="st27" d="M2796.58,2654.76c0.07,0,0.15-0.01,0.22-0.01c0.96-0.12,1.64-0.99,1.51-1.95l-7-55.54
						c-0.12-0.96-0.98-1.62-1.95-1.51c-0.96,0.12-1.64,0.99-1.51,1.95l7,55.54C2794.96,2654.11,2795.71,2654.76,2796.58,2654.76z"/>
				</g>
				<linearGradient id="SVGID_22_" gradientUnits="userSpaceOnUse" x1="3089.1138" y1="1817.6929" x2="2992.1494" y2="1951.4369">
					<stop  offset="0" style="stop-color:#FF928E"/>
					<stop  offset="1" style="stop-color:#EA5456"/>
				</linearGradient>
				<path class="st31" d="M2679,2045.72c0,0,146.1,12.97,125.43,117.07c0,0,80.76,151.98,118.51,331
					c1.23,5.83-2.67,11.51-8.54,12.51l-243.3,41.66c-6.71,1.15-13.18-3.04-14.89-9.63l-58.13-224.67l-22.65,104.46l-71.98-18.75
					l60.59-306.94C2564.05,2092.43,2572.5,2047.64,2679,2045.72z"/>
				<linearGradient id="SVGID_23_" gradientUnits="userSpaceOnUse" x1="3095.6611" y1="1640.1305" x2="2550.6538" y2="2298.8213">
					<stop  offset="0" style="stop-color:#E1473D"/>
					<stop  offset="1" style="stop-color:#E9605A"/>
				</linearGradient>
				<path class="st32" d="M2596.85,2303.62c0.13,0,0.26-0.01,0.39-0.04c0.98-0.21,1.6-1.18,1.38-2.16l-20.28-93.12
					c-0.21-0.98-1.17-1.59-2.16-1.39c-0.98,0.21-1.6,1.18-1.39,2.16l20.28,93.12C2595.27,2303.04,2596.01,2303.62,2596.85,2303.62z"
					/>
				<path class="st0" d="M2611.53,2580.72c7.66-4.21,16.64-5.38,25.12-3.27l16.93,4.21c3.6,0.9,7.16-1.58,7.58-5.27l17.52-155.92
					c21.9,10.4,53.5,9.16,63.92,8.4l-40.32,183.81H2561.2L2611.53,2580.72z"/>
				<path class="st0" d="M2236.67,2242.52l4.26-14.17c2.45-8.16,8.48-14.75,16.39-17.93l77.13-31.02c0,0,1.16-9.89-16.3-16.61
					c-17.46-6.72-13.38-26.28-13.38-26.28s23.86,10.88,58.78,28.14c19.97,9.87,31.18,27.3,37.12,40.41l174.77,213.06l-20.52,14.1
					c-26.98,18.54-64.09,9.43-79.43-19.49l-94.68-181.55C2333.28,2245.46,2285.18,2248.19,2236.67,2242.52z"/>
				<g>
					<path class="st0" d="M2631.67,1946.33l44.93,125.76c0,0-39.79,31.11-68.83,20.59l-22.64-72.09
						C2585.14,2020.59,2602.43,1932.48,2631.67,1946.33z"/>
					<g>
						<path class="st0" d="M2497.57,1901.16c0,1.94,43.28,122.53,43.28,122.53l68.33-26.18l-24.04-120.39
							C2585.14,1877.12,2497.57,1868.72,2497.57,1901.16z"/>
						<path class="st21" d="M2573.15,1906.45l17.62,62.39c0.23,0.8,0.34,1.61,0.34,2.44c0.01,5.09-1.25,22.6-19.09,20.22
							c-16.18-2.16-30.98-3.89-40.4,0.54c-4.23,1.99-6.25,6.85-4.67,11.25c3.94,10.96,13.26,35.48,24.61,55.55
							c2.3,4.07,7.36,5.66,11.62,3.72c12.83-5.84,39.56-18.91,58.59-34.46c2.58-2.11,3.82-5.42,3.2-8.69
							c-2.99-15.96-11.92-64.5-12.31-78.41c-0.37-13.06,14.28-23.02,20.73-26.77c2.11-1.23,3.62-3.25,4.19-5.63
							c2.02-8.4,3.74-27.42-20.52-31.61c-5.08-0.88-8.39-5.74-7.36-10.79c2.05-10.05,1.4-24.84-17.69-30.29
							c-19.4-5.54-31.61,6.14-37.82,15.09c-2.51,3.62-7.21,4.8-11.23,3c-2.29-1.02-5.06-1.07-8.03,1.44
							c-4.01,3.38-10.1,2.35-13.05-1.98c-5.66-8.33-15.93-16.64-33.33-11.01c-30.87,9.99-29.4,45.58-18.08,64.93
							c11.32,19.35,44.17,6.62,59.73-6.2c11.83-9.75,29.83-3.92,37.78-0.56C2570.53,1901.66,2572.41,1903.82,2573.15,1906.45z"/>
						<path class="st0" d="M2618.87,1963.76c0,0-18.27-34.56-6.19-45.42c12.08-10.85,32.55-9.08,32,17.95
							C2644,1969.92,2618.87,1963.76,2618.87,1963.76z"/>
					</g>
				</g>
				<linearGradient id="SVGID_24_" gradientUnits="userSpaceOnUse" x1="3203.3372" y1="1729.2266" x2="2658.3315" y2="2387.915">
					<stop  offset="0" style="stop-color:#E1473D"/>
					<stop  offset="1" style="stop-color:#E9605A"/>
				</linearGradient>
				<path class="st33" d="M2728.42,2431.22c9.97,0,17.09-0.76,17.86-0.84l1.3-0.14l53.2-248.03c0.21-0.98-0.41-1.94-1.39-2.15
					c-0.99-0.22-1.94,0.41-2.15,1.39l-52.65,245.45c-7.92,0.7-50.19,3.5-72.51-12.31l46.08-215.49l-9.62-18.13
					c-0.47-0.88-1.57-1.22-2.45-0.75c-0.88,0.47-1.22,1.57-0.75,2.45l9,16.96l-46.3,216.48l0.92,0.7
					C2685.1,2428.93,2711.07,2431.22,2728.42,2431.22z"/>
			</g>
			<g>
				<path class="st27" d="M1133.61,3187.42c-1.22,0-2.46-0.27-3.66-0.83c-4.7-2.21-6.87-8.16-4.85-13.29l194.39-493.24
					c2.02-5.13,7.47-7.5,12.18-5.29c4.7,2.21,6.87,8.16,4.85,13.29l-194.39,493.24C1140.63,3185.13,1137.21,3187.42,1133.61,3187.42
					z"/>
				<path class="st27" d="M1352.61,3187.42c-3.59,0-7.01-2.29-8.52-6.12l-194.39-493.24c-2.02-5.13,0.15-11.08,4.85-13.29
					c4.7-2.21,10.15,0.16,12.18,5.29l194.39,493.24c2.02,5.13-0.15,11.08-4.85,13.29
					C1355.07,3187.16,1353.83,3187.42,1352.61,3187.42z"/>
				<path class="st27" d="M2452.91,3187.42c-1.22,0-2.46-0.27-3.66-0.83c-4.7-2.21-6.87-8.16-4.85-13.29l194.39-493.24
					c2.02-5.13,7.47-7.5,12.18-5.29c4.7,2.21,6.87,8.16,4.85,13.29l-194.39,493.24C2459.92,3185.13,2456.5,3187.42,2452.91,3187.42z
					"/>
				<path class="st27" d="M2671.9,3187.42c-3.59,0-7.01-2.29-8.52-6.12l-194.39-493.24c-2.02-5.13,0.15-11.08,4.85-13.29
					c4.7-2.21,10.15,0.16,12.18,5.29l194.39,493.24c2.02,5.13-0.15,11.08-4.85,13.29
					C2674.36,3187.16,2673.12,3187.42,2671.9,3187.42z"/>
			</g>
			<g>
				<path class="st34" d="M2424.7,2645.23l281.55,0v-29.06H2424.7C2430.73,2616.18,2430.73,2645.23,2424.7,2645.23z"/>
				
					<linearGradient id="SVGID_25_" gradientUnits="userSpaceOnUse" x1="8872.2686" y1="-13643.709" x2="8626.4502" y2="-13045.7715" gradientTransform="matrix(-1 0 0 1 4755.5439 0)">
					<stop  offset="0" style="stop-color:#4F52FF"/>
					<stop  offset="1" style="stop-color:#4042E2"/>
				</linearGradient>
				<path class="st35" d="M2702.91,2645.23c1.84,0,3.34-1.5,3.34-3.34v-22.37c0-1.84-1.5-3.34-3.34-3.34h-283.45
					c-1.84,0-3.34-1.48-3.34-3.28s1.5-3.28,3.34-3.28h302.91c6.72,0,12.16,5.44,12.16,12.16v18.57c0,6.33-5.13,11.46-11.46,11.46
					h-303.61c-1.84,0-3.34-1.48-3.34-3.28c0-1.81,1.5-3.28,3.34-3.28H2702.91z"/>
			</g>
			<path class="st27" d="M2747.06,2664.82c0.95-3.24-0.34-6.6-3.51-9.15c-3.17-2.55-7.89-4.02-12.87-4.02H1043.66
				c-6.55,0-12.65,2.21-16.18,5.87c-3.53,3.66-4,8.26-1.26,12.2l18.28,26.25c4.19,6.01,13.26,9.86,23.24,9.86h1651.36
				c9.28,0,17.27-4.37,19.03-10.41L2747.06,2664.82z"/>
		</g>
	</g>
</g>
</svg>
